<svg id="header-logo_svg__Livello_1" xmlns="http://www.w3.org/2000/svg" x="0" y="0" viewBox="0 0 440 320" style="enable-background:new 0 0 440 320" xml:space="preserve" alt="Logo Yooda" width="70" height="50"><path style="fill: #a8c742;" class="header-logo_svg__st0" d="m181.6 9.8 84.9 4.4c2 0 3.6-1.8 3.6-4V4.6c0-2.2-1.6-4-3.6-4l-84.9 3.6c-2 0-3.6.6-3.6 2.8s1.6 2.8 3.6 2.8M150.2 34.4l147.7 4.4c2 0 3.6-1.8 3.6-4v-5.6c0-2.2-1.6-4-3.6-4l-147.7 3.6c-2 0-3.6.6-3.6 2.8s1.6 2.8 3.6 2.8M164.4 110.1l119.4 4.4c2 0 3.6-1.8 3.6-4v-5.6c0-2.2-1.6-4-3.6-4l-119.4 3.6c-2 0-3.6.6-3.6 2.8-.1 2.2 1.5 2.8 3.6 2.8M208.5 135.3l31.1 4.4c1.7 0 3-1.8 3-4v-5.6c0-2.2-1.4-4-3-4l-31.1 3.6c-1.7 0-3 .6-3 2.8s1.3 2.8 3 2.8M135.4 84.9l177.3 4.4c1.7 0 3.1-1.8 3.1-4v-5.6c0-2.2-1.4-4-3.1-4l-177.3 3.6c-1.7 0-3.1.6-3.1 2.8 0 2.2 1.4 2.8 3.1 2.8M103.9 59.7 344.2 64c2 0 3.7-1.8 3.7-4v-5.6c0-2.2-1.6-4-3.7-4L103.8 54c-2 0-3.6.6-3.6 2.8s1.7 2.9 3.7 2.9M11.2 305.2c.1-.1.2-.1.4-.1h2.2c.2 0 .4 0 .4.1.1.1.1.2.1.4v12.9c0 .2 0 .4-.1.4-.1.1-.2.1-.4.1h-2.2c-.2 0-.4 0-.4-.1-.1-.1-.1-.2-.1-.4v-5H5.4v5c0 .2 0 .4-.1.4-.1.1-.2.1-.4.1H2.7c-.2 0-.4 0-.4-.1-.1-.1-.1-.2-.1-.4v-12.9c0-.2 0-.4.1-.4.1-.1.2-.1.4-.1h2.2c.2 0 .4 0 .4.1.1.1.1.2.1.4v5.1H11v-5.1c.1-.1.1-.3.2-.4M22.8 319c-.7-.3-1.4-.6-1.9-1.1-.6-.5-1-1.1-1.3-1.9-.3-.8-.5-1.6-.5-2.6v-7.7c0-.2 0-.4.1-.4.1-.1.2-.1.4-.1h2.2c.2 0 .4 0 .4.1s.1.2.1.4v7.6c0 1.1.2 1.9.7 2.5.5.6 1.2.8 2.1.8.9 0 1.7-.3 2.1-.8.5-.5.7-1.4.7-2.5v-7.6c0-.2 0-.4.1-.4.1-.1.2-.1.4-.1h2.2c.2 0 .4 0 .4.1.1.1.1.2.1.4v7.7c0 1-.2 1.8-.5 2.6s-.8 1.4-1.3 1.9c-.6.5-1.2.9-1.9 1.1-.7.3-1.5.4-2.3.4-.8 0-1.6-.2-2.3-.4M44.5 319.1c0 .1-.1.1-.2.2-.1 0-.1.1-.2.1h-.3c-.1 0-.2 0-.2-.1-.1-.1-.2-.2-.3-.4l-4.1-6-.7 5.8c0 .2-.1.4-.1.4-.1.1-.2.1-.4.1h-2.2c-.2 0-.4 0-.4-.1-.1-.1-.1-.2-.1-.4L37 305c0-.1 0-.1.1-.1H37.4c.1 0 .2.1.2.2l6.5 9.5 6.5-9.5.2-.2H51.1s0 .1.1.1l1.7 13.5c0 .2 0 .3-.1.4-.1.1-.2.1-.4.1h-2.2c-.2 0-.3 0-.4-.1-.1-.1-.1-.2-.1-.4l-.6-5.9-4.2 6.1c-.2.3-.3.4-.4.4M62.1 313.8h3.4l-1.7-3.4-1.7 3.4zm9.2 5.1c-.1.1-.2.2-.3.2h-2.6c-.2 0-.3 0-.4-.1-.1-.1-.2-.2-.3-.4l-1.1-2.1H61l-1.1 2.1c-.1.2-.2.4-.3.4-.1.1-.2.1-.4.1h-2.6c-.1 0-.3-.1-.3-.2-.1-.1-.1-.2 0-.4l7-13.2.1-.1s0-.1.1-.1c0 0 0-.1.1-.1 0 0 0-.1.1-.1h.7s0 .1.1.1c0 0 0 .1.1.1 0 0 0 .1.1.1 0 .1 0 .1.1.1l7 13.2c-.4.2-.5.3-.5.4M78 319c-.1.1-.2.1-.4.1h-2.2c-.2 0-.4 0-.4-.1-.1-.1-.1-.2-.1-.4v-13.7H75.2c.1 0 .2.1.4.2l8.5 7.7v-7c0-.2 0-.4.1-.4.1-.1.2-.1.4-.1h2.2c.2 0 .4 0 .4.1s.1.2.1.4v13.5c0 .1-.1.2-.2.2H87c-.1 0-.2-.1-.4-.2l-8.5-7.8v7.1c0 .2 0 .3-.1.4M108.1 319.1c0 .1-.1.1-.2.2s-.1.1-.2.1h-.3c-.1 0-.2 0-.2-.1-.1-.1-.2-.2-.3-.4l-4.1-6-.7 5.8c0 .2-.1.4-.1.4-.1.1-.2.1-.4.1h-2.2c-.2 0-.4 0-.4-.1-.1-.1-.1-.2-.1-.4l1.7-13.5c0-.1 0-.1.1-.1H101c.1 0 .2.1.2.2l6.5 9.5 6.5-9.5.2-.2H114.7s0 .1.1.1l1.7 13.5c0 .2 0 .3-.1.4-.1.1-.2.1-.4.1h-2.2c-.2 0-.3 0-.4-.1-.1-.1-.1-.2-.1-.4l-.6-5.9-4.2 6.1c-.3.1-.4.2-.4.2M121 305.2c.1-.1.2-.1.4-.1h2.2c.2 0 .4 0 .4.1.1.1.1.2.1.4v12.9c0 .2 0 .4-.1.4-.1.1-.2.1-.4.1h-2.2c-.2 0-.4 0-.4-.1-.1-.1-.1-.2-.1-.4v-12.9c0-.1 0-.3.1-.4M132.3 319c-.1.1-.2.1-.4.1h-2.2c-.2 0-.4 0-.4-.1-.1-.1-.1-.2-.1-.4v-13.7H129.5c.1 0 .2.1.4.2l8.5 7.7v-7c0-.2 0-.4.1-.4.1-.1.2-.1.4-.1h2.2c.2 0 .4 0 .4.1s.1.2.1.4v13.5c0 .1-.1.2-.2.2h-.2c-.1 0-.2-.1-.4-.2l-8.5-7.8v7.1c.1.2 0 .3 0 .4M149.9 316.4h2.4c.6 0 1.2-.1 1.7-.4.5-.2.9-.6 1.2-1 .3-.4.6-.9.7-1.4.2-.5.3-1 .3-1.6 0-.8-.1-1.5-.4-2.1-.3-.6-.7-1.2-1.3-1.6-.6-.4-1.3-.6-2.1-.6H150v8.7zm5.2-10.8c.9.4 1.6.8 2.3 1.5.6.6 1.2 1.4 1.5 2.2s.6 1.8.6 2.8c0 1-.2 1.9-.6 2.8-.4.9-.9 1.6-1.5 2.2-.6.6-1.4 1.1-2.3 1.5-.9.4-1.8.5-2.8.5h-5.1c-.2 0-.4 0-.4-.1-.1-.1-.1-.2-.1-.4v-12.9c0-.2 0-.4.1-.4.1-.1.2-.1.4-.1h5.1c.9-.1 1.9.1 2.8.4M176.9 309.7c.3-.3.4-.7.4-1 0-.4-.1-.7-.4-1-.2-.2-.5-.3-.9-.3s-.7.1-.9.3c-.2.2-.3.5-.3 1s.3 1 1 1.6l.2.1c.3-.1.7-.4.9-.7m-3.5 5.5c0 .5.1.9.4 1.1.3.2.8.4 1.4.4.4 0 .8-.1 1.2-.4.4-.2.7-.5.9-.9l-2-2.1c-1.2.6-1.9 1.2-1.9 1.9m9.7-1.4c-.4.3-.8.5-1.1.8-.3.2-.6.5-.9.8l3.3 3.2c.2.2.2.3.2.4 0 .1-.2.1-.4.1H181s-.1 0-.1-.1l-.1-.1-.1-.1-.1-.1s-.1 0-.1-.1l-.1-.1-1.2-1.3c-.6.7-1.3 1.2-2 1.6-.7.3-1.4.5-2.3.5-1.5 0-2.7-.4-3.6-1.2-.9-.8-1.3-1.8-1.3-3 0-.5.1-1 .3-1.4.2-.4.4-.8.8-1.1.3-.3.7-.5 1.1-.7.4-.2.8-.4 1.3-.5-1.1-1-1.7-2.1-1.7-3.3 0-.4.1-.8.2-1.2.2-.4.4-.7.7-1.1.3-.3.8-.6 1.4-.8.6-.2 1.2-.3 2-.3.7 0 1.4.1 2 .3.6.2 1 .5 1.4.8.3.3.6.7.8 1.1.2.4.3.8.3 1.2 0 1.6-.9 2.9-2.6 3.9l1.5 1.4c.1-.1.2-.3.4-.4l.4-.4c.2-.1.3-.2.4-.3.1-.1.3-.2.5-.4.2-.1.3-.3.4-.3.1 0 .2-.2.5-.3.2-.2.4-.3.4-.3.2-.1.3-.2.4-.2.1 0 .2.1.4.2l1.1 1.3c.2.2.2.3.2.4 0 .1-.1.2-.3.3-.5.4-.8.5-1.2.8M205.3 315.1c.2-.1.3-.2.4-.2.1 0 .2.1.4.3l1.2 1.4c.1.1.2.2.2.3v.2c0 .1-.1.2-.2.3-.6.6-1.4 1.1-2.4 1.5-.9.4-1.9.6-2.9.6s-1.9-.2-2.8-.6c-.9-.4-1.7-.9-2.3-1.6-.6-.6-1.2-1.4-1.5-2.3-.4-.9-.6-1.8-.6-2.8 0-1.3.3-2.5 1-3.6.6-1.1 1.5-2 2.6-2.6 1.1-.7 2.3-1 3.6-1 1 0 1.9.2 2.9.6.9.4 1.7.9 2.4 1.5.1.1.2.2.2.3v.2c0 .1-.1.2-.2.3l-1.2 1.4c-.2.2-.3.2-.4.3-.1 0-.2-.1-.4-.2-.9-.9-1.9-1.4-3.2-1.4-.8 0-1.5.2-2.1.7-.6.4-1.1 1-1.3 1.7-.3.7-.4 1.4-.4 2.1 0 .6.1 1.1.3 1.6.2.5.4 1 .7 1.4.3.4.7.8 1.2 1 .5.3 1.1.4 1.6.4 1.2-.3 2.3-.8 3.2-1.8M220.9 316.5c.1.1.1.2.1.4v1.7c0 .2 0 .4-.1.4-.1.1-.2.1-.4.1h-8.2c-.2 0-.4 0-.4-.1-.1-.1-.1-.2-.1-.4v-12.9c0-.2 0-.4.1-.4.1-.1.2-.1.4-.1h2.2c.2 0 .4 0 .4.1s.1.2.1.4v10.7h5.5c.2 0 .3 0 .4.1M227.6 313.7c.2.5.4 1 .7 1.4.3.4.7.8 1.2 1 .5.3 1.1.4 1.6.4.6 0 1.2-.1 1.7-.4.5-.3.9-.6 1.2-1 .3-.4.6-.9.7-1.4.2-.5.3-1.1.3-1.6 0-.6-.1-1.1-.3-1.6-.2-.5-.4-1-.7-1.4-.3-.4-.7-.8-1.2-1-.5-.3-1.1-.4-1.7-.4-.8 0-1.5.2-2.1.7-.6.4-1.1 1-1.3 1.6-.3.7-.4 1.4-.4 2.1.1.6.1 1.1.3 1.6m-2.6-5.2c.6-1.1 1.5-2 2.6-2.6 1.1-.7 2.3-1 3.6-1 1 0 1.9.2 2.8.6.9.4 1.6.9 2.3 1.6.6.7 1.2 1.4 1.5 2.3.4.9.6 1.8.6 2.8 0 1-.2 1.9-.6 2.8-.4.9-.9 1.7-1.5 2.3-.7.7-1.4 1.2-2.3 1.6-.9.4-1.8.6-2.8.6-1 0-1.9-.2-2.8-.6-.9-.4-1.7-.9-2.3-1.6-.6-.6-1.2-1.4-1.5-2.3-.4-.9-.6-1.8-.6-2.8.1-1.4.4-2.6 1-3.7M246.2 319c-.7-.3-1.4-.6-1.9-1.1-.6-.5-1-1.1-1.3-1.9-.3-.8-.5-1.6-.5-2.6v-7.7c0-.2 0-.4.1-.4.1-.1.2-.1.4-.1h2.2c.2 0 .4 0 .4.1.1.1.1.2.1.4v7.6c0 1.1.2 1.9.7 2.5.5.6 1.2.8 2.1.8.9 0 1.7-.3 2.1-.8.5-.5.7-1.4.7-2.5v-7.6c0-.2 0-.4.1-.4.1-.1.2-.1.4-.1h2.2c.2 0 .4 0 .4.1.1.1.1.2.1.4v7.7c0 1-.2 1.8-.5 2.6s-.8 1.4-1.3 1.9c-.6.5-1.2.9-1.9 1.1-.7.3-1.5.4-2.3.4-.8 0-1.5-.2-2.3-.4M262.6 316.4h2.4c.6 0 1.2-.1 1.7-.4.5-.2.9-.6 1.2-1 .3-.4.6-.9.7-1.4.2-.5.3-1 .3-1.6 0-.8-.1-1.5-.4-2.1-.3-.6-.7-1.2-1.3-1.6-.6-.4-1.3-.6-2.1-.6h-2.4v8.7zm5.2-10.8c.9.4 1.6.8 2.3 1.5.6.6 1.2 1.4 1.5 2.2s.6 1.8.6 2.8c0 1-.2 1.9-.6 2.8-.4.9-.9 1.6-1.5 2.2s-1.4 1.1-2.3 1.5c-.9.4-1.8.5-2.8.5h-5.1c-.2 0-.4 0-.4-.1-.1-.1-.1-.2-.1-.4v-12.9c0-.2 0-.4.1-.4.1-.1.2-.1.4-.1h5.1c1-.1 1.9.1 2.8.4M294.4 305.2c.1.1.1.2.1.4v1.8c0 .2 0 .4-.1.4-.1.1-.2.1-.4.1h-4v10.6c0 .2 0 .4-.1.4-.1.1-.2.1-.4.1h-2.2c-.2 0-.4 0-.4-.1-.1-.1-.1-.2-.1-.4V308h-3.9c-.2 0-.4 0-.4-.1-.1-.1-.1-.2-.1-.4v-1.8c0-.2 0-.4.1-.4s.2-.1.4-.1H294c.2-.1.3-.1.4 0M298.3 319c-.1-.1-.1-.2-.1-.4v-12.9c0-.2 0-.4.1-.4.1-.1.2-.1.4-.1h9.1c.2 0 .4 0 .4.1.1.1.1.2.1.4v1.7c0 .2 0 .4-.1.4-.1.1-.2.1-.4.1h-6.4v2.8h6.1c.2 0 .4 0 .4.1.1.1.1.2.1.4v1.7c0 .2 0 .4-.1.4-.1.1-.2.1-.4.1h-6.1v2.9h6.4c.2 0 .4 0 .4.1.1.1.1.2.1.4v1.7c0 .2 0 .4-.1.4-.1.1-.2.1-.4.1h-9.1c-.2.1-.3.1-.4 0M322.5 315.1c.2-.1.3-.2.4-.2.1 0 .2.1.4.3l1.2 1.4c.1.1.2.2.2.3v.2c0 .1-.1.2-.2.3-.6.6-1.4 1.1-2.4 1.5-.9.4-1.9.6-2.9.6s-1.9-.2-2.8-.6c-.9-.4-1.7-.9-2.3-1.6-.6-.6-1.2-1.4-1.5-2.3-.4-.9-.6-1.8-.6-2.8 0-1.3.3-2.5 1-3.6.6-1.1 1.5-2 2.6-2.6 1.1-.7 2.3-1 3.6-1 1 0 1.9.2 2.9.6s1.7.9 2.4 1.5c.1.1.2.2.2.3v.2c0 .1-.1.2-.2.3l-1.2 1.4c-.1.2-.3.2-.4.3-.1 0-.2-.1-.4-.2-.9-.9-1.9-1.4-3.2-1.4-.8 0-1.5.2-2.1.7-.6.4-1.1 1-1.3 1.7-.3.7-.4 1.4-.4 2.1 0 .6.1 1.1.3 1.6.2.5.4 1 .7 1.4.3.4.7.8 1.2 1 .5.3 1.1.4 1.6.4 1.3-.3 2.3-.8 3.2-1.8M337.9 305.2c.1-.1.2-.1.4-.1h2.2c.2 0 .4 0 .4.1s.1.2.1.4v12.9c0 .2 0 .4-.1.4-.1.1-.2.1-.4.1h-2.2c-.2 0-.4 0-.4-.1-.1-.1-.1-.2-.1-.4v-5h-5.6v5c0 .2 0 .4-.1.4-.1.1-.2.1-.4.1h-2.2c-.2 0-.4 0-.4-.1-.1-.1-.1-.2-.1-.4v-12.9c0-.2 0-.4.1-.4.1-.1.2-.1.4-.1h2.2c.2 0 .4 0 .4.1.1.1.1.2.1.4v5.1h5.6v-5.1c0-.1.1-.3.1-.4M349.2 319c-.1.1-.2.1-.4.1h-2.2c-.2 0-.4 0-.4-.1-.1-.1-.1-.2-.1-.4v-13.7H346.4c.1 0 .2.1.4.2l8.5 7.7v-7c0-.2 0-.4.1-.4.1-.1.2-.1.4-.1h2.2c.2 0 .4 0 .4.1s.1.2.1.4v13.5c0 .1-.1.2-.2.2h-.2c-.1 0-.2-.1-.4-.2l-8.5-7.8v7.1c.1.2.1.3 0 .4M366.5 313.7c.2.5.4 1 .7 1.4.3.4.7.8 1.2 1 .5.3 1.1.4 1.6.4.6 0 1.2-.1 1.7-.4.5-.3.9-.6 1.2-1 .3-.4.6-.9.7-1.4.2-.5.3-1.1.3-1.6 0-.6-.1-1.1-.3-1.6-.2-.5-.4-1-.7-1.4-.3-.4-.7-.8-1.2-1-.5-.3-1.1-.4-1.7-.4-.8 0-1.5.2-2.1.7-.6.4-1.1 1-1.3 1.6-.3.7-.4 1.4-.4 2.1 0 .6.1 1.1.3 1.6m-2.6-5.2c.6-1.1 1.5-2 2.6-2.6 1.1-.7 2.3-1 3.6-1 1 0 1.9.2 2.8.6.9.4 1.7.9 2.3 1.6.6.7 1.2 1.4 1.5 2.3.4.9.6 1.8.6 2.8 0 1-.2 1.9-.6 2.8-.4.9-.9 1.7-1.5 2.3-.7.7-1.4 1.2-2.3 1.6-.9.4-1.8.6-2.8.6s-1.9-.2-2.8-.6c-.9-.4-1.7-.9-2.3-1.6-.6-.6-1.2-1.4-1.5-2.3-.4-.9-.6-1.8-.6-2.8 0-1.4.4-2.6 1-3.7M390.9 316.5c.1.1.1.2.1.4v1.7c0 .2 0 .4-.1.4-.1.1-.2.1-.4.1h-8.2c-.2 0-.4 0-.4-.1-.1-.1-.1-.2-.1-.4v-12.9c0-.2 0-.4.1-.4.1-.1.2-.1.4-.1h2.2c.2 0 .4 0 .4.1.1.1.1.2.1.4v10.7h5.5c.2 0 .3 0 .4.1M397.6 313.7c.2.5.4 1 .7 1.4.3.4.7.8 1.2 1 .5.3 1.1.4 1.6.4.6 0 1.2-.1 1.7-.4.5-.3.9-.6 1.2-1 .3-.4.6-.9.7-1.4.2-.5.3-1.1.3-1.6 0-.6-.1-1.1-.3-1.6-.2-.5-.4-1-.7-1.4-.3-.4-.7-.8-1.2-1-.5-.3-1.1-.4-1.7-.4-.8 0-1.5.2-2.1.7-.6.4-1.1 1-1.3 1.6-.3.7-.4 1.4-.4 2.1 0 .6.1 1.1.3 1.6m-2.6-5.2c.6-1.1 1.5-2 2.6-2.6 1.1-.7 2.3-1 3.6-1 1 0 1.9.2 2.8.6.9.4 1.7.9 2.3 1.6.6.7 1.2 1.4 1.5 2.3.4.9.6 1.8.6 2.8 0 1-.2 1.9-.6 2.8-.4.9-.9 1.7-1.5 2.3-.7.7-1.4 1.2-2.3 1.6-.9.4-1.8.6-2.8.6s-1.9-.2-2.8-.6c-.9-.4-1.7-.9-2.3-1.6-.6-.6-1.2-1.4-1.5-2.3-.4-.9-.6-1.8-.6-2.8 0-1.4.4-2.6 1-3.7M417.2 308.3c-.6.4-1.1 1-1.3 1.6-.3.7-.4 1.4-.4 2.1 0 .6.1 1.1.3 1.6.2.5.4 1 .8 1.4.3.4.7.8 1.2 1 .5.3 1.1.4 1.7.4.9 0 1.7-.2 2.4-.7V314H420c-.2 0-.4 0-.4-.1-.1-.1-.1-.2-.1-.4v-1.7c0-.2 0-.4.1-.4s.2-.1.4-.1h4.6c.2 0 .4 0 .4.1.1.1.1.2.1.4v4.7c0 .3-.1.5-.3.7-.7.6-1.5 1.2-2.4 1.5-1 .4-2 .6-2.9.6-1 0-1.9-.2-2.8-.6-.9-.4-1.7-.9-2.3-1.6-.6-.6-1.2-1.4-1.5-2.3-.4-.9-.6-1.8-.6-2.8 0-1.3.3-2.5 1-3.6.6-1.1 1.5-2 2.6-2.6 1.1-.7 2.3-1 3.6-1 1 0 1.9.2 2.9.6.9.4 1.7.9 2.4 1.5.1.1.2.2.2.3v.2c0 .1-.1.2-.2.3l-1.2 1.4c-.1.2-.3.2-.4.3-.1 0-.2 0-.4-.2-.9-.9-1.9-1.4-3.2-1.4-1.1-.1-1.8.1-2.4.5M426.1 305.2c0-.1.2-.1.4-.1h2.5c.2 0 .3 0 .4.1.1.1.2.2.3.4l3.1 5.6 3.2-5.6c.1-.2.2-.4.3-.4.1-.1.2-.1.4-.1h2.4c.2 0 .3 0 .4.1 0 .1 0 .2-.1.4l-5 8.4v4.5c0 .2 0 .4-.1.4-.1.1-.2.1-.4.1h-2.1c-.2 0-.4 0-.4-.1-.1-.1-.1-.2-.1-.4V314l-5-8.4c-.2-.1-.3-.3-.2-.4M.6 182.2c.2-.5 1-.7 2.2-.7H17c1.1 0 1.9.2 2.5.7.5.5 1.2 1.3 1.9 2.6l24 39.8 24-39.8c.8-1.3 1.5-2.2 2-2.7.5-.4 1.3-.6 2.4-.6h13.9c1.2 0 2 .2 2.2.7.2.5.1 1.3-.6 2.6l-34.9 56.5v38.1c0 1.3-.2 2.1-.6 2.6-.5.5-1.4.7-2.7.7H39.6c-1.3 0-2.1-.2-2.6-.7-.5-.5-.7-1.3-.7-2.6v-38.1l-35-56.5c-.7-1.3-.9-2.1-.7-2.6M325.4 261.2c-4.2 5.1-9.6 7.7-15.9 7.7-6.5 0-11.9-2.5-16.1-7.4-4.2-5-6.4-11.1-6.4-18.5 0-7.1 2.1-13.2 6.4-18.2 4.2-5 9.6-7.5 16-7.5s11.7 2.5 15.9 7.6c4.2 5.1 6.4 11.1 6.4 18.2 0 6.9-2.1 12.9-6.3 18.1m23.6-79c-.5-.5-1.3-.7-2.6-.7H335c-1.3 0-2.2.2-2.6.7-.5.5-.7 1.3-.7 2.6v31c-.7-1.3-1.6-2.6-2.9-4.1-1.3-1.5-3.1-3-5.2-4.7-2.1-1.7-4.8-3.1-8-4.2-3.1-1.1-6.5-1.6-10.1-1.6-7 0-13.3 1.9-18.8 5.7-5.6 3.8-9.9 8.8-12.9 15.2-3 6.4-4.5 13.3-4.5 20.9 0 7.4 1.5 14.3 4.5 20.7 3 6.4 7.3 11.4 12.9 15.2 5.6 3.8 11.9 5.7 18.8 5.7 2.9 0 5.7-.3 8.4-1s5-1.5 6.9-2.5c1.9-.9 3.8-2.1 5.7-3.6 1.8-1.5 3.4-2.8 4.5-4.1 1.2-1.2 2.4-2.5 3.7-4.1l2.2 10.2c.7 1.3 1.2 2.1 1.8 2.6.5.5 1.1.7 2.1.7h5.5c1.3 0 2.1-.2 2.6-.7.5-.5.7-1.3.7-2.6v-94.6c0-1.4-.2-2.2-.6-2.7M423.2 259.7c-2.5 3.1-5.6 5.8-9.2 7.9-3.7 2.1-7.4 3.2-11.2 3.2-5.1 0-8.9-1.2-11.5-3.7-2.6-2.5-3.9-5.4-3.9-8.8 0-3.8 1.4-6.9 4.2-9.2 2.8-2.2 7-3.4 12.7-3.4 3.1 0 6.1.3 8.7.9 2.7.7 6.1 1.7 10.1 3.1v10zm15.2-32c-.4-3.2-1-6.4-1.9-9.3-1-3-2.3-5.5-3.9-7.5-1.7-2-3.8-3.8-6.4-5.3-2.6-1.5-5.7-2.7-9.5-3.4-3.8-.7-8-1-13-1s-10.3.4-16 1.2c-5.7.8-9.5 1.4-11.5 1.8-1.2.3-1.9.8-2.1 1.3-.2.5-.2 1.5.2 2.8l1.8 7.6c.3 1.3.7 2.2 1.2 2.6.5.5 1.3.6 2.5.5 8.4-1.5 16-2.3 23.1-2.3 7 0 11.9 1.5 14.4 4.5 2.5 3.1 3.8 8.4 3.8 16-3.4-1.2-7.2-2.2-11.5-3-4.3-.7-8.1-1.1-11.6-1.1-9 0-16.2 2.1-21.9 6.5-5.7 4.4-8.5 10.6-8.5 18.8 0 5.6 1.3 10.4 4 14.5s6.1 7.1 10.1 8.9c4.1 1.9 8.5 2.8 13.3 2.8 12 0 21.8-4.1 29.3-12.4l1.1 7.3c.5 1.3.9 2.1 1.5 2.6.5.5 1.2.7 2.1.7h6.6c1.3 0 2.2-.2 2.7-.7.4-.5.6-1.3.6-2.6v-40.3c.1-4.4-.1-8.2-.5-11.5M249.2 222c-3.7-6.4-8.7-11.5-15-15.2-6.4-3.8-13.3-5.6-20.8-5.6s-14.5 1.8-20.8 5.6c-5.1 3-9.4 7-12.9 11.7-.6.9-.5 2.1.1 2.9l8.4 10c1.1 1.3 3.2 1 3.9-.5 1.1-2.2 2.5-4.3 4.3-6.2 4.7-5 10.3-7.4 16.9-7.4 6.5 0 12.1 2.5 16.8 7.4 4.6 5 6.9 11 6.9 18.3 0 7.3-2.3 13.4-6.9 18.4-4.7 5-10.3 7.5-16.8 7.5-6.7 0-12.3-2.5-16.9-7.5-.3-.4-.7-.7-1-1.1l-37.7-44.5.1-.1c-2.9-3.5-6.4-6.4-10.5-8.8-6.4-3.8-13.3-5.6-20.8-5.6s-14.5 1.8-20.8 5.6c-6.4 3.8-11.4 8.9-15.2 15.2-3.8 6.4-5.6 13.4-5.6 20.9 0 7.5 1.8 14.5 5.6 20.8 3.8 6.4 8.8 11.4 15.2 15.2 6.4 3.8 13.3 5.6 20.8 5.6s14.5-1.8 20.8-5.6c5.1-3 9.3-6.9 12.7-11.5.6-.9.5-2.1-.1-2.9l-8.4-10c-1.1-1.3-3.2-1-3.9.5-1.1 2.3-2.5 4.4-4.3 6.3-4.7 5-10.3 7.5-16.8 7.5-6.7 0-12.3-2.5-16.9-7.5-4.7-5-7-11.1-7-18.4 0-7.3 2.3-13.3 7-18.3s10.3-7.4 16.9-7.4c6.5 0 12.1 2.5 16.8 7.4.3.4.6.7 1 1.1l2.3 2.7 34.1 40.4 1.2 1.4c3 3.4 6.5 6.3 10.5 8.7 6.4 3.8 13.3 5.6 20.8 5.6s14.5-1.8 20.8-5.6c6.4-3.8 11.3-8.8 15-15.2 3.7-6.4 5.5-13.3 5.5-20.8.2-7.6-1.6-14.6-5.3-21"></path></svg>